#!OML:ASF G:\JayActor3\Patient Classification 1\Patient 1\Session 6\male.ASF
:FULLY-SPECIFIED
:DEGREES
2692
root -3.6739 16.3277 -2.81496 512.434 -82.1925 -519.855
lowerback -0.501216 -0.21693 0.873728
upperback -0.504919 -0.297655 -1.04491
thorax -0.245785 -0.155241 -1.56015
lowerneck -4.13119 0.774977 -0.918852
upperneck 35.3901 -0.198892 -1.62509
head 12.3619 -1.16385 -0.649427
rclavicle -2.23633e-014 -2.38542e-015
rhumerus -27.3803 -4.50448 -83.2953
rradius 31.8837
rwrist 9.32699
rhand -2.61912 -2.62852
rfingers 7.12502
rthumb 23.0795 -31.2664
lclavicle -2.23633e-014 -2.38542e-015
lhumerus -0.94297 -32.6011 77.4682
lradius 48.4456
lwrist 33.2917
lhand -7.04521 11.3848
lfingers 7.12502
lthumb 18.8273 40.4936
rfemur -3.6146 6.96582 11.8059
rtibia 29.8344
rfoot -28.9223 -32.9506
rtoes 7.20357
lfemur 4.80825 6.02498 -9.00496
ltibia 18.0513
lfoot -13.5932 8.4097
ltoes -8.10652
2693
root -3.66187 16.3304 -2.81609 512.429 -82.1652 -519.768
lowerback -0.636119 -0.182918 0.946425
upperback -0.31845 -0.252094 -1.10217
thorax 0.0215815 -0.129561 -1.66047
lowerneck -4.19243 0.807668 -0.918471
upperneck 35.6513 -0.15983 -1.67635
head 12.4868 -1.16348 -0.671491
rclavicle -1.09332e-015 1.82882e-014
rhumerus -27.1057 -4.38749 -83.3794
rradius 32.1803
rwrist 8.98187
rhand -3.16274 -2.69721
rfingers 7.12502
rthumb 22.5578 -31.3994
lclavicle -1.09332e-015 1.82882e-014
lhumerus -0.814367 -32.4493 77.3902
lradius 48.1909
lwrist 33.247
lhand -7.06677 11.4884
lfingers 7.12502
lthumb 18.8066 40.5993
rfemur -3.72355 6.84365 11.797
rtibia 29.7763
rfoot -28.8067 -32.8685
rtoes 7.05252
lfemur 4.70371 5.94459 -9.0185
ltibia 18.0117
lfoot -13.5374 8.54397
ltoes -8.11731
2694
root -3.65002 16.3343 -2.82034 513.056 -82.1497 -520.283
lowerback -0.812377 -0.142738 0.905083
upperback -0.137252 -0.198107 -1.16439
thorax 0.307656 -0.0994447 -1.70164
lowerneck -4.24926 0.82827 -0.928571
upperneck 35.8727 -0.137106 -1.71499
head 12.5945 -1.1684 -0.687793
rclavicle 7.25564e-015 2.62396e-014
rhumerus -26.8236 -4.25298 -83.4472
rradius 32.475
rwrist 8.61044
rhand -3.70753 -2.75452
rfingers 7.12502
rthumb 22.0348 -31.5192
lclavicle 7.25564e-015 2.62396e-014
lhumerus -0.710164 -32.2829 77.3323
lradius 47.8994
lwrist 33.1671
lhand -7.11042 11.5629
lfingers 7.12502
lthumb 18.7646 40.6778
rfemur -3.90752 6.76729 11.7124
rtibia 29.7677
rfoot -28.7313 -32.7687
rtoes 6.93218
lfemur 4.60443 5.86305 -9.118
ltibia 17.899
lfoot -13.4511 8.70848
ltoes -8.09464
2695
root -3.63789 16.3388 -2.82708 514.119 -82.151 -521.211
lowerback -0.996992 -0.105133 0.777018
upperback 0.0283367 -0.146448 -1.22806
thorax 0.58264 -0.0711175 -1.69527
lowerneck -4.30563 0.840285 -0.940787
upperneck 36.0694 -0.125722 -1.74936
head 12.6919 -1.17703 -0.702864
rclavicle -1.09332e-015 7.15625e-015
rhumerus -26.5505 -4.09925 -83.5001
rradius 32.764
rwrist 8.22684
rhand -4.25522 -2.79402
rfingers 7.12502
rthumb 21.5089 -31.6198
lclavicle -1.09332e-015 7.15625e-015
lhumerus -0.652774 -32.1027 77.3015
lradius 47.5759
lwrist 33.0617
lhand -7.17375 11.6156
lfingers 7.12502
lthumb 18.7037 40.7364
rfemur -4.14707 6.71192 11.5711
rtibia 29.8003
rfoot -28.6856 -32.6472
rtoes 6.83381
lfemur 4.50635 5.78605 -9.27625
ltibia 17.7304
lfoot -13.3438 8.87081
ltoes -8.02651
2696
root -3.62559 16.3428 -2.8352 515.327 -82.1451 -522.293
lowerback -1.14161 -0.0687984 0.622897
upperback 0.17718 -0.0953544 -1.28663
thorax 0.818032 -0.0440009 -1.66861
lowerneck -4.34914 0.844955 -0.955712
upperneck 36.2405 -0.125561 -1.7768
head 12.776 -1.18931 -0.715472
rclavicle -4.47266e-015 -7.95139e-016
rhumerus -26.3055 -3.92339 -83.5393
rradius 33.047
rwrist 7.82768
rhand -4.801 -2.82267
rfingers 7.12502
rthumb 20.9846 -31.7074
lclavicle -4.47266e-015 -7.95139e-016
lhumerus -0.659957 -31.9079 77.306
lradius 47.2231
lwrist 32.9468
lhand -7.22641 11.6503
lfingers 7.12502
lthumb 18.6531 40.776
rfemur -4.39322 6.65702 11.414
rtibia 29.8551
rfoot -28.6418 -32.4943
rtoes 6.72889
lfemur 4.43183 5.73469 -9.43918
ltibia 17.5425
lfoot -13.2373 9.00647
ltoes -7.92418
2697
root -3.61255 16.3459 -2.84388 516.371 -82.1379 -523.233
lowerback -1.21257 -0.0405805 0.491267
upperback 0.304129 -0.0548979 -1.33574
thorax 0.98924 -0.0229923 -1.64466
lowerneck -4.37535 0.84273 -0.96793
upperneck 36.3892 -0.136384 -1.80103
head 12.8468 -1.20511 -0.728068
rclavicle -1.41137e-014 -7.95139e-015
rhumerus -26.103 -3.73409 -83.5668
rradius 33.3249
rwrist 7.41735
rhand -5.34128 -2.84735
rfingers 7.12502
rthumb 20.4655 -31.7888
lclavicle -1.41137e-014 -7.95139e-015
lhumerus -0.744637 -31.6946 77.3504
lradius 46.8434
lwrist 32.8065
lhand -7.21072 11.715
lfingers 7.12502
lthumb 18.6681 40.8392
rfemur -4.61257 6.56761 11.275
rtibia 29.9113
rfoot -28.5852 -32.3102
rtoes 6.6039
lfemur 4.36983 5.70357 -9.56708
ltibia 17.3733
lfoot -13.1456 9.0938
ltoes -7.7844
2698
root -3.5984 16.3478 -2.85264 517.062 -82.128 -523.845
lowerback -1.19707 -0.0219426 0.416241
upperback 0.407247 -0.0281604 -1.3722
thorax 1.08704 -0.00920627 -1.63953
lowerneck -4.37973 0.83196 -0.981327
upperneck 36.5112 -0.162172 -1.8151
head 12.9014 -1.22571 -0.737533
rclavicle -1.02374e-014 2.3059e-014
rhumerus -25.9461 -3.53782 -83.5842
rradius 33.5946
rwrist 6.99389
rhand -5.85716 -2.87257
rfingers 7.12502
rthumb 19.9697 -31.8665
lclavicle -1.02374e-014 2.3059e-014
lhumerus -0.911089 -31.4587 77.4349
lradius 46.4431
lwrist 32.6527
lhand -7.12021 11.8139
lfingers 7.12502
lthumb 18.7552 40.9297
rfemur -4.79156 6.43521 11.1795
rtibia 29.9527
rfoot -28.5069 -32.1091
rtoes 6.45258
lfemur 4.3051 5.69313 -9.63398
ltibia 17.2516
lfoot -13.0702 9.13486
ltoes -7.6581
2699
root -3.58315 16.3487 -2.86143 517.46 -82.123 -524.184
lowerback -1.09069 -0.0124208 0.391514
upperback 0.480463 -0.0148956 -1.40068
thorax 1.10279 -0.00241816 -1.65457
lowerneck -4.35849 0.812358 -1.00009
upperneck 36.6083 -0.206015 -1.8103
head 12.9396 -1.25213 -0.74007
rclavicle -4.27387e-015 -1.03368e-014
rhumerus -25.8443 -3.34029 -83.5937
rradius 33.856
rwrist 6.56022
rhand -6.36497 -2.89925
rfingers 7.12502
rthumb 19.4815 -31.9433
lclavicle -4.27387e-015 -1.03368e-014
lhumerus -1.16702 -31.1955 77.563
lradius 46.0295
lwrist 32.4896
lhand -6.96604 11.9547
lfingers 7.12502
lthumb 18.9035 41.0562
rfemur -4.9301 6.25914 11.1172
rtibia 29.9718
rfoot -28.408 -31.9018
rtoes 6.27724
lfemur 4.22586 5.70026 -9.65233
ltibia 17.1875
lfoot -13.0116 9.13329
ltoes -7.5582
2700
root -3.56659 16.3494 -2.87046 517.58 -82.13 -524.246
lowerback -0.917909 -0.0141439 0.411055
upperback 0.524395 -0.0177709 -1.4207
thorax 1.05079 -0.00384425 -1.68598
lowerneck -4.31447 0.783984 -1.02629
upperneck 36.6737 -0.26691 -1.78504
head 12.959 -1.28356 -0.734305
rclavicle -3.37934e-015 1.35174e-014
rhumerus -25.7873 -3.15058 -83.5944
rradius 34.1084
rwrist 6.1353
rhand -6.8502 -2.92977
rfingers 7.12502
rthumb 19.0149 -32.0203
lclavicle -3.37934e-015 1.35174e-014
lhumerus -1.49652 -30.9049 77.725
lradius 45.6047
lwrist 32.3418
lhand -6.74294 12.1414
lfingers 7.12502
lthumb 19.118 41.2218
rfemur -5.04954 6.04889 11.0874
rtibia 29.9684
rfoot -28.3035 -31.7025
rtoes 6.08716
lfemur 4.10923 5.71028 -9.62993
ltibia 17.1758
lfoot -12.9625 9.10332
ltoes -7.47799
2701
root -3.54907 16.3501 -2.87996 517.554 -82.1532 -524.154
lowerback -0.698941 -0.0260374 0.4534
upperback 0.543038 -0.0347701 -1.43526
thorax 0.946513 -0.0125717 -1.72473
lowerneck -4.2642 0.746774 -1.05374
upperneck 36.718 -0.343079 -1.74742
head 12.9677 -1.31954 -0.724627
rclavicle 1.45113e-014 1.51076e-014
rhumerus -25.764 -2.96794 -83.5881
rradius 34.3444
rwrist 5.72011
rhand -7.32859 -2.9504
rfingers 7.12502
rthumb 18.5548 -32.0855
lclavicle 1.45113e-014 1.51076e-014
lhumerus -1.88734 -30.5883 77.9153
lradius 45.1718
lwrist 32.2306
lhand -6.52581 12.3356
lfingers 7.12502
lthumb 19.3268 41.3952
rfemur -5.16231 5.8176 11.0731
rtibia 29.9467
rfoot -28.1941 -31.5256
rtoes 5.88452
lfemur 3.95436 5.71371 -9.59006
ltibia 17.2032
lfoot -12.9172 9.06005
ltoes -7.40825
2702
root -3.53116 16.3511 -2.89006 517.445 -82.1832 -523.98
lowerback -0.447936 -0.0429865 0.510002
upperback 0.548498 -0.0586271 -1.4438
thorax 0.810506 -0.0249243 -1.76523
lowerneck -4.21869 0.700107 -1.08593
upperneck 36.7439 -0.434283 -1.69671
head 12.9693 -1.36016 -0.71018
rclavicle -1.46107e-014 -7.95139e-016
rhumerus -25.7616 -2.79587 -83.5718
rradius 34.5648
rwrist 5.32221
rhand -7.78309 -2.98142
rfingers 7.12502
rthumb 18.1175 -32.1576
lclavicle -1.46107e-014 -7.95139e-016
lhumerus -2.31564 -30.2533 78.1243
lradius 44.7263
lwrist 32.1713
lhand -6.35711 12.497
lfingers 7.12502
lthumb 19.489 41.5402
rfemur -5.26568 5.58546 11.0708
rtibia 29.9126
rfoot -28.0894 -31.372
rtoes 5.66105
lfemur 3.78171 5.7102 -9.5402
ltibia 17.2544
lfoot -12.8727 9.01767
ltoes -7.36026
2703
root -3.51322 16.3519 -2.90068 517.251 -82.219 -523.722
lowerback -0.182187 -0.066806 0.579306
upperback 0.550145 -0.0914305 -1.44415
thorax 0.661969 -0.0418472 -1.80437
lowerneck -4.18267 0.647611 -1.11657
upperneck 36.7545 -0.5324 -1.64451
head 12.9661 -1.40249 -0.695809
rclavicle 6.16232e-015 3.18055e-015
rhumerus -25.7654 -2.63304 -83.5452
rradius 34.7663
rwrist 4.95648
rhand -8.18699 -3.0257
rfingers 7.12502
rthumb 17.7289 -32.2375
lclavicle 6.16232e-015 3.18055e-015
lhumerus -2.76331 -29.9098 78.341
lradius 44.2634
lwrist 32.1602
lhand -6.26171 12.6296
lfingers 7.12502
lthumb 19.5808 41.6635
rfemur -5.35994 5.35338 11.0825
rtibia 29.8729
rfoot -27.981 -31.2476
rtoes 5.40428
lfemur 3.60478 5.69542 -9.48149
ltibia 17.3131
lfoot -12.8228 8.98308
ltoes -7.33712
2704
root -3.49626 16.3525 -2.91163 517.022 -82.2378 -523.447
lowerback 0.0862679 -0.0879842 0.665521
upperback 0.563813 -0.120222 -1.43633
thorax 0.524299 -0.0566518 -1.84441
lowerneck -4.15446 0.588105 -1.14512
upperneck 36.737 -0.636619 -1.59377
head 12.9522 -1.44573 -0.682279
rclavicle -1.2921e-015 -3.97569e-015
rhumerus -25.7615 -2.47654 -83.5083
rradius 34.9471
rwrist 4.61629
rhand -8.54203 -3.07953
rfingers 7.12502
rthumb 17.3872 -32.3219
lclavicle -1.2921e-015 -3.97569e-015
lhumerus -3.21084 -29.5657 78.5569
lradius 43.7814
lwrist 32.1955
lhand -6.24429 12.7536
lfingers 7.12502
lthumb 19.5975 41.7858
rfemur -5.43385 5.14252 11.1098
rtibia 29.8324
rfoot -27.8692 -31.1434
rtoes 5.11851
lfemur 3.45822 5.67518 -9.41374
ltibia 17.3693
lfoot -12.7762 8.97149
ltoes -7.32195
2705
root -3.48072 16.3524 -2.92292 516.814 -82.246 -523.216
lowerback 0.347031 -0.10796 0.756032
upperback 0.598675 -0.146788 -1.42218
thorax 0.412672 -0.0701619 -1.88027
lowerneck -4.14204 0.521222 -1.17885
upperneck 36.697 -0.748057 -1.53899
head 12.9318 -1.49082 -0.666486
rclavicle -1.49089e-015 1.03368e-014
rhumerus -25.7412 -2.33095 -83.4604
rradius 35.1083
rwrist 4.31122
rhand -8.84525 -3.13843
rfingers 7.12502
rthumb 17.0954 -32.4063
lclavicle -1.49089e-015 1.03368e-014
lhumerus -3.64258 -29.2259 78.7645
lradius 43.2723
lwrist 32.237
lhand -6.27367 12.827
lfingers 7.12502
lthumb 19.5693 41.8622
rfemur -5.48123 4.9433 11.1411
rtibia 29.7969
rfoot -27.7509 -31.0495
rtoes 4.80624
lfemur 3.35609 5.6458 -9.34784
ltibia 17.4124
lfoot -12.733 8.98238
ltoes -7.30075
